<svg width="872" height="846" viewBox="0 0 872 846" fill="none" xmlns="http://www.w3.org/2000/svg">
<path d="M815.706 231.696C925.977 416.549 865.517 655.794 680.664 766.065C634.24 793.759 601.421 816.031 572.22 829.719C543.113 843.363 517.758 848.392 486.374 841.6C454.906 834.789 417.304 816.079 363.768 782.016C310.249 747.964 240.915 698.641 145.997 630.7C51.1275 562.793 10.2577 508.161 2.48296 461.395C-5.27555 414.725 19.8754 375.485 58.2682 338.153C77.4514 319.501 99.8804 301.382 123.043 283.1C146.191 264.829 170.075 246.391 192.103 227.138C236.134 188.655 272.98 146.726 281.845 95.9145C286.212 70.8886 296.07 51.4047 310.153 36.7875C324.239 22.1663 342.607 12.3586 364.076 6.7783C407.047 -4.39043 462.339 1.40468 520.118 19.3232C635.688 55.1637 760.593 139.307 815.706 231.696Z" fill="#35BFFF" stroke="white" stroke-width="2.1548"/>
</svg>
