<svg width="16577" height="17634" viewBox="0 0 16577 17634" fill="none" xmlns="http://www.w3.org/2000/svg">
<ellipse cx="1636.1" cy="3534.7" rx="945.495" ry="800.034" fill="#45A6D3"/>
<ellipse cx="697.879" cy="3709.25" rx="618.208" ry="523.659" transform="rotate(-9.73865 697.879 3709.25)" fill="#45A6D3"/>
<ellipse cx="2400.81" cy="3747.36" rx="712.758" ry="516.386" transform="rotate(6.24552 2400.81 3747.36)" fill="#45A6D3"/>
<ellipse cx="4036.19" cy="800.034" rx="945.495" ry="800.034" fill="#48ACDA"/>
<ellipse cx="3097.98" cy="974.587" rx="618.208" ry="523.659" transform="rotate(-9.73865 3097.98 974.587)" fill="#48ACDA"/>
<ellipse cx="4800.91" cy="1012.7" rx="712.758" ry="516.386" transform="rotate(6.24552 4800.91 1012.7)" fill="#48ACDA"/>
<ellipse cx="4036.19" cy="6269.36" rx="945.495" ry="800.034" fill="#3C97C1"/>
<ellipse cx="3097.98" cy="6443.92" rx="618.208" ry="523.659" transform="rotate(-9.73865 3097.98 6443.92)" fill="#3C97C1"/>
<ellipse cx="4800.91" cy="6482.03" rx="712.758" ry="516.386" transform="rotate(6.24552 4800.91 6482.03)" fill="#3C97C1"/>
<ellipse cx="1679.72" cy="9004.03" rx="945.495" ry="800.034" fill="#3B97C1"/>
<ellipse cx="741.512" cy="9178.58" rx="618.208" ry="523.659" transform="rotate(-9.73865 741.512 9178.58)" fill="#3B97C1"/>
<ellipse cx="2444.44" cy="9216.69" rx="712.758" ry="516.386" transform="rotate(6.24552 2444.44 9216.69)" fill="#3B97C1"/>
<ellipse cx="4254.39" cy="11738.7" rx="945.495" ry="800.034" fill="#3487AD"/>
<ellipse cx="3316.18" cy="11913.2" rx="618.208" ry="523.659" transform="rotate(-9.73865 3316.18 11913.2)" fill="#3487AD"/>
<ellipse cx="5019.11" cy="11951.3" rx="712.758" ry="516.386" transform="rotate(6.24552 5019.11 11951.3)" fill="#3487AD"/>
<ellipse cx="1767.01" cy="14473.3" rx="945.495" ry="800.034" fill="#3080A6"/>
<ellipse cx="828.801" cy="14647.9" rx="618.208" ry="523.659" transform="rotate(-9.73865 828.801 14647.9)" fill="#3080A6"/>
<ellipse cx="2531.73" cy="14686" rx="712.758" ry="516.386" transform="rotate(6.24552 2531.73 14686)" fill="#3080A6"/>
<ellipse cx="4341.65" cy="16829.8" rx="945.495" ry="800.034" fill="#2C799C"/>
<ellipse cx="3403.44" cy="17004.4" rx="618.208" ry="523.659" transform="rotate(-9.73865 3403.44 17004.4)" fill="#2C799C"/>
<ellipse cx="5106.37" cy="17042.5" rx="712.758" ry="516.386" transform="rotate(6.24552 5106.37 17042.5)" fill="#2C799C"/>
<ellipse cx="6989.04" cy="3534.7" rx="945.495" ry="800.034" fill="#45A6D3"/>
<ellipse cx="6050.83" cy="3709.25" rx="618.208" ry="523.659" transform="rotate(-9.73865 6050.83 3709.25)" fill="#45A6D3"/>
<ellipse cx="7753.76" cy="3747.36" rx="712.758" ry="516.386" transform="rotate(6.24552 7753.76 3747.36)" fill="#45A6D3"/>
<ellipse cx="9389.14" cy="800.034" rx="945.495" ry="800.034" fill="#48ACDA"/>
<ellipse cx="8450.93" cy="974.587" rx="618.208" ry="523.659" transform="rotate(-9.73865 8450.93 974.587)" fill="#48ACDA"/>
<ellipse cx="10153.9" cy="1012.7" rx="712.758" ry="516.386" transform="rotate(6.24552 10153.9 1012.7)" fill="#48ACDA"/>
<ellipse cx="9389.14" cy="6269.36" rx="945.495" ry="800.034" fill="#3C97C1"/>
<ellipse cx="8450.93" cy="6443.92" rx="618.208" ry="523.659" transform="rotate(-9.73865 8450.93 6443.92)" fill="#3C97C1"/>
<ellipse cx="10153.9" cy="6482.03" rx="712.758" ry="516.386" transform="rotate(6.24552 10153.9 6482.03)" fill="#3C97C1"/>
<ellipse cx="7032.68" cy="9004.03" rx="945.495" ry="800.034" fill="#3B97C1"/>
<ellipse cx="6094.47" cy="9178.58" rx="618.208" ry="523.659" transform="rotate(-9.73865 6094.47 9178.58)" fill="#3B97C1"/>
<ellipse cx="7797.41" cy="9216.69" rx="712.758" ry="516.386" transform="rotate(6.24552 7797.41 9216.69)" fill="#3B97C1"/>
<ellipse cx="9607.34" cy="11738.7" rx="945.495" ry="800.034" fill="#3487AD"/>
<ellipse cx="8669.13" cy="11913.2" rx="618.208" ry="523.659" transform="rotate(-9.73865 8669.13 11913.2)" fill="#3487AD"/>
<ellipse cx="10372.1" cy="11951.3" rx="712.758" ry="516.386" transform="rotate(6.24552 10372.1 11951.3)" fill="#3487AD"/>
<ellipse cx="7119.96" cy="14473.3" rx="945.495" ry="800.034" fill="#3080A6"/>
<ellipse cx="6181.75" cy="14647.9" rx="618.208" ry="523.659" transform="rotate(-9.73865 6181.75 14647.9)" fill="#3080A6"/>
<ellipse cx="7884.69" cy="14686" rx="712.758" ry="516.386" transform="rotate(6.24552 7884.69 14686)" fill="#3080A6"/>
<ellipse cx="9694.62" cy="16829.8" rx="945.495" ry="800.034" fill="#2C799C"/>
<ellipse cx="8756.41" cy="17004.4" rx="618.208" ry="523.659" transform="rotate(-9.73865 8756.41 17004.4)" fill="#2C799C"/>
<ellipse cx="10459.3" cy="17042.5" rx="712.758" ry="516.386" transform="rotate(6.24552 10459.3 17042.5)" fill="#2C799C"/>
<ellipse cx="12342" cy="3534.7" rx="945.495" ry="800.034" fill="#46A6D3"/>
<ellipse cx="11403.8" cy="3709.25" rx="618.208" ry="523.659" transform="rotate(-9.73865 11403.8 3709.25)" fill="#46A6D3"/>
<ellipse cx="13106.7" cy="3747.36" rx="712.758" ry="516.386" transform="rotate(6.24552 13106.7 3747.36)" fill="#46A6D3"/>
<ellipse cx="14742.1" cy="800.034" rx="945.495" ry="800.034" fill="#48ACDA"/>
<ellipse cx="13803.9" cy="974.587" rx="618.208" ry="523.659" transform="rotate(-9.73865 13803.9 974.587)" fill="#48ACDA"/>
<ellipse cx="15506.8" cy="1012.7" rx="712.758" ry="516.386" transform="rotate(6.24552 15506.8 1012.7)" fill="#48ACDA"/>
<ellipse cx="14742.1" cy="6269.36" rx="945.495" ry="800.034" fill="#3C97C1"/>
<ellipse cx="13803.9" cy="6443.92" rx="618.208" ry="523.659" transform="rotate(-9.73865 13803.9 6443.92)" fill="#3C97C1"/>
<ellipse cx="15506.8" cy="6482.03" rx="712.758" ry="516.386" transform="rotate(6.24552 15506.8 6482.03)" fill="#3C97C1"/>
<ellipse cx="12385.6" cy="9004.03" rx="945.495" ry="800.034" fill="#3A92BB"/>
<ellipse cx="11447.4" cy="9178.58" rx="618.208" ry="523.659" transform="rotate(-9.73865 11447.4 9178.58)" fill="#3A92BB"/>
<ellipse cx="13150.4" cy="9216.69" rx="712.758" ry="516.386" transform="rotate(6.24552 13150.4 9216.69)" fill="#3A92BB"/>
<ellipse cx="14960.3" cy="11738.7" rx="945.495" ry="800.034" fill="#3588AF"/>
<ellipse cx="14022.1" cy="11913.2" rx="618.208" ry="523.659" transform="rotate(-9.73865 14022.1 11913.2)" fill="#3588AF"/>
<ellipse cx="15725" cy="11951.3" rx="712.758" ry="516.386" transform="rotate(6.24552 15725 11951.3)" fill="#3588AF"/>
<ellipse cx="12472.9" cy="14473.3" rx="945.495" ry="800.034" fill="#2B789C"/>
<ellipse cx="11534.7" cy="14647.9" rx="618.208" ry="523.659" transform="rotate(-9.73865 11534.7 14647.9)" fill="#2B789C"/>
<ellipse cx="13237.6" cy="14686" rx="712.758" ry="516.386" transform="rotate(6.24552 13237.6 14686)" fill="#2B789C"/>
<ellipse cx="15047.6" cy="16829.8" rx="945.495" ry="800.034" fill="#287396"/>
<ellipse cx="14109.4" cy="17004.4" rx="618.208" ry="523.659" transform="rotate(-9.73865 14109.4 17004.4)" fill="#287396"/>
<ellipse cx="15812.3" cy="17042.5" rx="712.758" ry="516.386" transform="rotate(6.24552 15812.3 17042.5)" fill="#287396"/>
</svg>
